<svg xmlns="http://www.w3.org/2000/svg" xmlns:xlink="http://www.w3.org/1999/xlink" width="373" height="216" viewBox="0 0 373 216">
  <defs>
    <clipPath id="clip-path">
      <path id="패스_2" data-name="패스 2" d="M0,0H373V-216H0Z" fill="none"/>
    </clipPath>
    <clipPath id="clip-path-2">
      <path id="패스_4" data-name="패스 4" d="M152.092-110.708V-94h-4.058v-28h4.058v8.508H156v2.785ZM137.6-116.215c-1.652,0-2.974,2.6-2.944,6.592-.03,3.8,1.263,6.341,2.914,6.341,1.684,0,2.947-2.477,2.947-6.341C140.517-113.8,139.317-116.215,137.6-116.215Zm-2.1-2.844V-122h4.207v2.941h5.622v2.782h-2.947a10.761,10.761,0,0,1,2.194,6.654c-.03,5.228-2.885,9.126-6.974,9.126-4.207.031-7-3.9-7-9.126a10.567,10.567,0,0,1,2.164-6.654H130v-2.782Z" fill="none"/>
    </clipPath>
    <clipPath id="clip-path-3">
      <path id="패스_6" data-name="패스 6" d="M163.358-104.829h6.8c1.827,0,3.2.092,4.909-.836V-122h4.043v8.508H183v2.785h-3.891V-94h-4.043v-8.88a12.5,12.5,0,0,1-5,.836h-8.954c-1.765,0-3.112-1.764-3.112-3.836v-14.883h4.042v14.791c0,.71.447,1.144,1.316,1.144" fill="none"/>
    </clipPath>
    <clipPath id="clip-path-4">
      <path id="패스_8" data-name="패스 8" d="M190.962-102.046v4.387c0,.756.476,1.045,1.157,1.045h8.917v-5.432Zm14.076-2.615V-94h-15.35c-1.481,0-2.726-1.628-2.726-3.6v-7.059Zm-4.592-5.2a18.062,18.062,0,0,0,.621-5.256v-2.266H186.993V-120h18.074v4.8a17.947,17.947,0,0,1-.742,5.343H208v2.617H184v-2.617Z" fill="none"/>
    </clipPath>
    <clipPath id="clip-path-5">
      <path id="패스_10" data-name="패스 10" d="M222-106.109a8.517,8.517,0,0,1,3.023.573v-2.386h-6.044v2.356a8.423,8.423,0,0,1,3.021-.543Zm.032-13.169c-1.987,0-3.438,1.9-3.408,4.259-.029,2.356,1.451,4.259,3.408,4.259,1.9,0,3.377-1.843,3.406-4.259C225.409-117.319,223.866-119.278,222.032-119.278ZM222-103.39a3.464,3.464,0,0,0-3.021,1.813,4.357,4.357,0,0,0-.474,2.053,3.52,3.52,0,0,0,.9,2.657,3.52,3.52,0,0,0,2.56,1.151,3.557,3.557,0,0,0,2.571-1.15,3.557,3.557,0,0,0,.929-2.658,3.649,3.649,0,0,0-.927-2.658A3.649,3.649,0,0,0,222-103.39Zm7.053,1.662a6.043,6.043,0,0,1,.415,2.2c0,4.139-3.792,6.525-7.468,6.525-4,0-7.5-2.446-7.5-6.525a5.861,5.861,0,0,1,.445-2.3v-6.1H210v-2.719h6.132a6.868,6.868,0,0,1-1.51-4.379,7.164,7.164,0,0,1,2.249-5.035,7.164,7.164,0,0,1,5.16-1.945,7.143,7.143,0,0,1,5.165,1.94,7.143,7.143,0,0,1,2.242,5.04,6.844,6.844,0,0,1-1.54,4.379H234v2.719h-4.948Z" fill="none"/>
    </clipPath>
    <clipPath id="clip-path-6">
      <path id="패스_12" data-name="패스 12" d="M251.881-100.607a18.526,18.526,0,0,0,1.184-7.589v-8.2H238.991V-119h18.074v10.775a18.171,18.171,0,0,1-1.333,7.618H260V-98H236v-2.607Z" fill="none"/>
    </clipPath>
    <clipPath id="clip-path-7">
      <path id="패스_14" data-name="패스 14" d="M268.993-97.949v.867a1.144,1.144,0,0,0,.278.916,1.144,1.144,0,0,0,.878.384h8.916v-2.167Zm0-2.785h10.073v-2.475h4V-93h-15.02c-1.6,0-3.052-1.7-3.052-3.805v-6.4h4Zm14.37-8.57H268.075c-1.628,0-3.082-1.764-3.082-3.775v-3.467h14.073v-1.67H264.993V-121h18.073v4.611c0,1.392-.918,2.631-1.955,2.631H268.993v.618c0,.618.444,1.051,1.213,1.051h13.156ZM262-107.54h24v2.785h-9.984v2.782h-4.032v-2.782H262Z" fill="none"/>
    </clipPath>
    <clipPath id="clip-path-8">
      <path id="패스_16" data-name="패스 16" d="M102-122.951A3.978,3.978,0,0,0,106-119a3.977,3.977,0,0,0,4-3.951,2.28,2.28,0,0,0-.213-.947c-.347-.72-.727-1.067-.694-1.927.053-1.157-1.451-1.175-2.267-1.175a5.936,5.936,0,0,0-2.621.517,4.009,4.009,0,0,0-1.573,1.395,3.921,3.921,0,0,0-.633,2.044Z" fill="none"/>
    </clipPath>
    <clipPath id="clip-path-9">
      <path id="패스_18" data-name="패스 18" d="M124.894-118.7c-.269-.358-.806-.36-1.8-.2a90.032,90.032,0,0,1-12.79,1.225,95.742,95.742,0,0,1-10.206-.173c-2.877-.224-8.321-.99-9.532-1.1a4.91,4.91,0,0,0-2.9.408c-1,.731-.716,1.817-.12,2.684a7,7,0,0,0,4.37,2.4,73.515,73.515,0,0,0,13.544.253,79.068,79.068,0,0,0,11.963-1.772,41.543,41.543,0,0,0,6.095-2.009c.752-.368,1.831-1.078,1.381-1.72" fill="none"/>
    </clipPath>
    <clipPath id="clip-path-10">
      <path id="패스_21" data-name="패스 21" d="M108.815-110a7.859,7.859,0,0,0-7.759.047,8.146,8.146,0,0,0-3.8,4.99,8.146,8.146,0,0,0,.873,6.21c1.891,2.989,4.416,2.275,5.137,1.517a2.015,2.015,0,0,0,.081-2.7,3.952,3.952,0,0,1-1.081-2.575,2.857,2.857,0,0,1,2.845-2.871,2.848,2.848,0,0,1,2.161,1.007,4.6,4.6,0,0,1,.785,3.192,36.824,36.824,0,0,1-2.935,11.82c-.111.284-.3.984.228,1.272.4.2.871.019,1.334-.4A21.285,21.285,0,0,0,111.209-95c.634-1.473,2.2-5.383,1.689-9.284a8.009,8.009,0,0,0-4.085-5.73" fill="none"/>
    </clipPath>
    <clipPath id="clip-path-11">
      <path id="패스_20" data-name="패스 20" d="M97-88h16v-23H97Z" fill="none"/>
    </clipPath>
  </defs>
  <g id="그룹_12" data-name="그룹 12" transform="translate(0 216)">
    <g id="그룹_1" data-name="그룹 1" clip-path="url(#clip-path)">
      <path id="패스_1" data-name="패스 1" d="M-1-217H374V1H-1Z" fill="#f9fafc"/>
    </g>
    <g id="그룹_2" data-name="그룹 2" clip-path="url(#clip-path-2)">
      <path id="패스_3" data-name="패스 3" d="M129-123h28v30H129Z" fill="#009178"/>
    </g>
    <g id="그룹_3" data-name="그룹 3" clip-path="url(#clip-path-3)">
      <path id="패스_5" data-name="패스 5" d="M157-123h27v30H157Z" fill="#009178"/>
    </g>
    <g id="그룹_4" data-name="그룹 4" clip-path="url(#clip-path-4)">
      <path id="패스_7" data-name="패스 7" d="M183-121h26v28H183Z" fill="#009178"/>
    </g>
    <g id="그룹_5" data-name="그룹 5" clip-path="url(#clip-path-5)">
      <path id="패스_9" data-name="패스 9" d="M209-123h26v31H209Z" fill="#009178"/>
    </g>
    <g id="그룹_6" data-name="그룹 6" clip-path="url(#clip-path-6)">
      <path id="패스_11" data-name="패스 11" d="M235-120h26v23H235Z" fill="#009178"/>
    </g>
    <g id="그룹_7" data-name="그룹 7" clip-path="url(#clip-path-7)">
      <path id="패스_13" data-name="패스 13" d="M261-122h26v30H261Z" fill="#009178"/>
    </g>
    <g id="그룹_8" data-name="그룹 8" clip-path="url(#clip-path-8)">
      <path id="패스_15" data-name="패스 15" d="M101-128h10v10H101Z" fill="#dc231e"/>
    </g>
    <g id="그룹_9" data-name="그룹 9" clip-path="url(#clip-path-9)">
      <path id="패스_17" data-name="패스 17" d="M85.658-120.088h40.686v8.279H85.658Z" fill="#009178"/>
    </g>
    <g id="그룹_11" data-name="그룹 11" clip-path="url(#clip-path-10)">
      <g id="그룹_10" data-name="그룹 10" clip-path="url(#clip-path-11)">
        <path id="패스_19" data-name="패스 19" d="M96-112h18v25H96Z" fill="#009178"/>
      </g>
    </g>
  </g>
</svg>
